<?xml version="1.0" encoding="UTF-8"?>
<svg version="1.1" xmlns="http://www.w3.org/2000/svg" width="512" height="512">
<path d="M0 0 C8.09316156 3.94199718 14.55562532 10.84734598 21 17 C21.72316406 17.6703125 22.44632813 18.340625 23.19140625 19.03125 C52.50491377 46.98271576 70.09452689 91.83273129 71.26478577 131.97257996 C71.32583583 135.37805564 71.33060432 138.7816061 71.3125 142.1875 C71.30976578 143.26442108 71.30976578 143.26442108 71.30697632 144.36309814 C71.25694561 156.12112902 70.53951416 167.49470109 68 179 C67.83371094 179.77907715 67.66742188 180.5581543 67.49609375 181.36083984 C64.75418297 193.84415032 60.41840916 205.44192495 55 217 C54.68691895 217.67015137 54.37383789 218.34030273 54.05126953 219.03076172 C39.60229021 249.32848913 13.4162923 273.99994529 -18 286 C-23.91046375 288.01846189 -29.92104184 289.5820647 -36 291 C-37.02867187 291.2475 -38.05734375 291.495 -39.1171875 291.75 C-71.58843373 298.08585292 -106.21977111 289.77640527 -133.546875 271.69140625 C-157.41591749 255.37439396 -175.74296697 234.67632919 -189 209 C-189.35191406 208.32211426 -189.70382813 207.64422852 -190.06640625 206.94580078 C-211.66267959 164.77927632 -214.67058685 114.82183826 -200.33251953 69.90917969 C-197.69108038 61.88703116 -194.33418935 54.27190043 -190.5 46.75 C-190.14454102 46.03440918 -189.78908203 45.31881836 -189.42285156 44.58154297 C-187.02684789 40.06382925 -184.83388579 37.14072085 -180 35 C-173.90671364 34.67511004 -168.31565027 36.72402648 -162.6875 38.8125 C-125.72840984 51.71188626 -86.32215132 48.51136263 -51 32 C-36.40282153 24.89119338 -24.25007782 15.41798478 -12.55859375 4.25 C-8.46943591 0.65403829 -5.49267581 -0.82908314 0 0 Z M-7.75 30.375 C-39.26810369 59.1568053 -84.20540336 70.72241485 -126 69 C-141.73407037 68.16569184 -156.92144982 64.4072623 -172 60 C-185.4527028 91.07808017 -191.50438828 126.60136462 -183 160 C-182.80132324 160.81645996 -182.60264648 161.63291992 -182.39794922 162.47412109 C-176.52883061 186.16601636 -166.36761929 208.67926983 -150 227 C-149.18144531 227.96164062 -148.36289063 228.92328125 -147.51953125 229.9140625 C-127.74458109 252.78209376 -99.24696292 268.18390345 -69 271 C-42.70150303 272.55177467 -16.89522675 264.80560651 3.21875 247.53125 C30.64951051 222.56617583 47.35377804 189.85891015 49.12548828 152.34277344 C50.61461369 108.17785803 36.79416527 67.16039689 6.578125 34.69140625 C5.72734375 33.80324219 4.8765625 32.91507813 4 32 C3.12859375 31.06027344 2.2571875 30.12054688 1.359375 29.15234375 C-2.63270522 25.51056196 -4.34980729 27.0407025 -7.75 30.375 Z " fill="#000000" transform="translate(246,187)"/>
<path d="M0 0 C5.3602071 1.2082434 9.64785055 4.55472394 14.16064453 7.55419922 C42.79149604 25.93094294 81.68623963 30.73167062 114.60888672 24.08984375 C134.61175423 19.68179813 152.80451841 12.01443564 169.859375 0.64453125 C172.1640625 0.30859375 172.1640625 0.30859375 174.734375 0.26953125 C175.57742188 0.24117187 176.42046875 0.2128125 177.2890625 0.18359375 C185.30735752 1.62152508 190.43316232 11.38361065 194.859375 17.64453125 C212.94153505 43.91139048 224.75662756 75.77529331 225.09765625 107.89453125 C225.1074501 108.66185577 225.11724396 109.4291803 225.12733459 110.21975708 C225.30432274 127.69675849 225.04091805 144.56589181 220.859375 161.64453125 C220.54589111 162.93665527 220.54589111 162.93665527 220.22607422 164.25488281 C210.6029428 202.41582492 186.86924808 238.98770081 152.859375 259.64453125 C138.71791818 267.92891568 124.99922343 273.59537511 108.859375 276.64453125 C108.15931696 273.37625518 107.47651256 270.10460949 106.796875 266.83203125 C106.59771484 265.90326172 106.39855469 264.97449219 106.19335938 264.01757812 C106.00966797 263.12490234 105.82597656 262.23222656 105.63671875 261.3125 C105.37749634 260.07922974 105.37749634 260.07922974 105.11303711 258.82104492 C104.859375 256.64453125 104.859375 256.64453125 105.859375 253.64453125 C108.39049635 252.78461847 110.8344841 252.09571242 113.421875 251.45703125 C141.59860341 243.79629706 165.83828644 223.71303941 180.53881836 198.65649414 C182.39498742 195.36050422 184.13788915 192.01232521 185.859375 188.64453125 C186.17745117 188.04205566 186.49552734 187.43958008 186.82324219 186.81884766 C205.19605114 151.82987763 206.67579674 108.33823601 195.30078125 70.953125 C190.38986506 55.76989629 182.96305976 40.02154509 172.859375 27.64453125 C168.89853655 28.83580633 165.35473951 30.35473886 161.71191406 32.30957031 C124.27355967 52.29832964 77.7798977 55.0551014 37.41625977 43.11645508 C23.96440725 38.92524017 11.33405256 33.14876091 -1.140625 26.64453125 C-1.38425781 27.16402344 -1.62789062 27.68351562 -1.87890625 28.21875 C-3.1925804 30.74442074 -4.66052299 33.14747647 -6.16088867 35.56567383 C-22.02076481 61.26457792 -29.15302328 88.52267865 -30.140625 118.64453125 C-37.730625 118.64453125 -45.320625 118.64453125 -53.140625 118.64453125 C-53.140625 79.60882394 -41.49497922 42.0628439 -17.453125 11.08203125 C-17.00155029 10.4979248 -16.54997559 9.91381836 -16.0847168 9.31201172 C-11.33411627 3.34565487 -7.78266917 -0.31084625 0 0 Z " fill="#000000" transform="translate(255.140625,31.35546875)"/>
<path d="M0 0 C0.84922516 18.08457638 -0.38575053 32.83390964 -13 47 C-23.43926865 58.10822685 -35.82700233 63.83147735 -50.94921875 64.9609375 C-66.71418543 65.16279367 -80.55041486 59.59209103 -92.15234375 49.04296875 C-99.52035119 41.42040443 -104.93452721 31.60077989 -106 21 C-98.79738151 18.34640372 -91.67736891 16.84377447 -84 17 C-83.39865234 18.39412109 -83.39865234 18.39412109 -82.78515625 19.81640625 C-79.18723012 27.78393456 -75.86145849 33.5547774 -68 38 C-67.37480469 38.35578125 -66.74960938 38.7115625 -66.10546875 39.078125 C-58.63659101 42.53739469 -49.31329683 42.16351674 -41.6875 39.4375 C-32.6013157 35.20416413 -27.74038408 29.18240213 -24 20 C-22.89485234 16.68455701 -22.67892369 13.79589889 -22.4375 10.3125 C-22.35371094 9.13300781 -22.26992187 7.95351563 -22.18359375 6.73828125 C-22.12300781 5.83464844 -22.06242187 4.93101562 -22 4 C-20.10454608 3.51933465 -18.20861961 3.04053257 -16.3125 2.5625 C-15.25675781 2.29566406 -14.20101562 2.02882813 -13.11328125 1.75390625 C-8.62601461 0.66727832 -4.63416711 -0.13240477 0 0 Z " fill="#000000" transform="translate(241,362)"/>
<path d="M0 0 C0.74636719 0.30035156 1.49273437 0.60070312 2.26171875 0.91015625 C14.90652056 6.64875982 23.94751603 17.11754786 29 29.9375 C31.58723672 37.18715289 32 42.02243666 32 50 C24.74 50 17.48 50 10 50 C9.608125 48.185 9.21625 46.37 8.8125 44.5 C6.39300385 34.96763324 2.00917134 28.7513478 -6 23 C-12.9323585 19.09786831 -20.79654124 17.77845633 -28.5625 19.6015625 C-32.80725079 20.852248 -36.90349716 22.32647309 -41 24 C-43.00760786 21.21373218 -45.00475953 18.42013417 -47 15.625 C-47.57234375 14.8309375 -48.1446875 14.036875 -48.734375 13.21875 C-49.27578125 12.45820313 -49.8171875 11.69765625 -50.375 10.9140625 C-50.87773437 10.2123291 -51.38046875 9.5105957 -51.8984375 8.78759766 C-53 7 -53 7 -53 5 C-35.54682193 -4.28519004 -19.03695807 -7.69465858 0 0 Z " fill="#000000" transform="translate(363,185)"/>
<path d="M0 0 C1.2043457 1.62646484 1.2043457 1.62646484 2.17578125 3.7109375 C2.52833984 4.46117187 2.88089844 5.21140625 3.24414062 5.984375 C3.59669922 6.77328125 3.94925781 7.5621875 4.3125 8.375 C4.8703418 9.54675781 4.8703418 9.54675781 5.43945312 10.7421875 C8.13304302 16.60087093 8.13304302 16.60087093 7 20 C4.58251953 21.45458984 4.58251953 21.45458984 1.3828125 22.9609375 C0.2175 23.51523437 -0.9478125 24.06953125 -2.1484375 24.640625 C-3.39054333 25.21892545 -4.63273127 25.79704957 -5.875 26.375 C-7.66164063 27.22191406 -7.66164063 27.22191406 -9.484375 28.0859375 C-12.98261308 29.73937169 -16.48951665 31.37274993 -20 33 C-21.07797852 33.5043457 -22.15595703 34.00869141 -23.26660156 34.52832031 C-24.25370117 34.98561523 -25.24080078 35.44291016 -26.2578125 35.9140625 C-27.12809082 36.31834473 -27.99836914 36.72262695 -28.89501953 37.13916016 C-31 38 -31 38 -33 38 C-34.50626117 34.87797994 -36.00393243 31.75191601 -37.5 28.625 C-37.92925781 27.73554688 -38.35851562 26.84609375 -38.80078125 25.9296875 C-39.40986328 24.65351563 -39.40986328 24.65351563 -40.03125 23.3515625 C-40.40830078 22.56604004 -40.78535156 21.78051758 -41.17382812 20.97119141 C-42 19 -42 19 -42 17 C-41.20416504 16.63237549 -40.40833008 16.26475098 -39.58837891 15.88598633 C-36.58715462 14.49871018 -33.58658577 13.11003447 -30.58642578 11.72045898 C-29.29696529 11.12355787 -28.00725873 10.52718797 -26.71728516 9.93139648 C-24.84469948 9.06639867 -22.9730555 8.19939024 -21.1015625 7.33203125 C-20.49040588 7.05013947 -19.87924927 6.76824768 -19.24957275 6.47781372 C-14.76485076 4.3959176 -10.39132906 2.1471978 -6.06396484 -0.2434082 C-3.53299371 -1.17119145 -2.44295969 -1.12346085 0 0 Z " fill="#000000" transform="translate(243,276)"/>
<path d="M0 0 C9.36972631 1.50609582 18.50028951 3.78740752 27.6875 6.125 C29.17895259 6.50163436 30.67048854 6.87793875 32.16210938 7.25390625 C35.77570698 8.16547533 39.38816166 9.08148178 43 10 C44.0354051 13.1848935 43.94040666 15.13031874 43.00390625 18.328125 C42.77509766 19.12734375 42.54628906 19.9265625 42.31054688 20.75 C42.06369141 21.575 41.81683594 22.4 41.5625 23.25 C41.31951172 24.09046875 41.07652344 24.9309375 40.82617188 25.796875 C40.22626051 27.86715734 39.61429181 29.93393897 39 32 C32.96490042 31.43575329 27.31542818 30.49321704 21.46484375 28.93359375 C20.70071671 28.73524429 19.93658966 28.53689484 19.14930725 28.33253479 C16.74379929 27.70670419 14.34066141 27.07227457 11.9375 26.4375 C10.29246763 26.00788905 8.64728645 25.57884752 7.00195312 25.15039062 C2.99955422 24.10682486 -1.00074544 23.05554878 -5 22 C-4.35482025 19.08318736 -3.7088818 16.16654627 -3.0625 13.25 C-2.88009766 12.425 -2.69769531 11.6 -2.50976562 10.75 C-2.33251953 9.95078125 -2.15527344 9.1515625 -1.97265625 8.328125 C-1.72914429 7.22839355 -1.72914429 7.22839355 -1.48071289 6.10644531 C-1.01446454 4.06338247 -0.51579351 2.03106238 0 0 Z " fill="#000000" transform="translate(375,117)"/>
<path d="M0 0 C0.89156457 2.61207546 1.58154919 5.07155594 2.1875 7.75 C2.36474609 8.46671875 2.54199219 9.1834375 2.72460938 9.921875 C3.62002876 13.68332787 4.22230424 17.10584299 4 21 C-5.57472886 23.71746532 -15.16791312 26.3531482 -24.8125 28.8125 C-25.65329102 29.03123779 -26.49408203 29.24997559 -27.36035156 29.4753418 C-31.31788877 30.47194496 -34.88191059 31.29235929 -39 31 C-44.49227014 15.182262 -44.49227014 15.182262 -43 9 C-37.36095314 7.54702902 -31.71930386 6.10482871 -26.07495117 4.67260742 C-24.15459753 4.18371042 -22.23499292 3.69186154 -20.31616211 3.19702148 C-17.5603415 2.48687593 -14.80201489 1.78733713 -12.04296875 1.08984375 C-11.18350143 0.86594467 -10.32403412 0.64204559 -9.43852234 0.41136169 C-8.23761711 0.11093712 -8.23761711 0.11093712 -7.01245117 -0.19555664 C-6.3085173 -0.37542618 -5.60458344 -0.55529572 -4.87931824 -0.74061584 C-3 -1 -3 -1 0 0 Z " fill="#000000" transform="translate(308,118)"/>
<path d="M0 0 C4.31937908 0.12007928 8.63861121 0.24439945 12.95776367 0.37231445 C14.42094782 0.41509012 15.88416381 0.45679271 17.34741211 0.49731445 C26.59494478 0.75427848 35.77806169 1.21332569 45 2 C44.67 9.26 44.34 16.52 44 24 C33.48014348 24.07568242 23.00935316 24.04922371 12.5 23.5625 C11.61094971 23.52326416 10.72189941 23.48402832 9.8059082 23.44360352 C8.972771 23.40162842 8.13963379 23.35965332 7.28125 23.31640625 C6.54970703 23.27974854 5.81816406 23.24309082 5.06445312 23.20532227 C2.96333677 22.99635362 1.03232266 22.56335663 -1 22 C-1.0270817 19.27076612 -1.04687847 16.54180363 -1.0625 13.8125 C-1.07087891 13.04357422 -1.07925781 12.27464844 -1.08789062 11.48242188 C-1.09111328 10.73154297 -1.09433594 9.98066406 -1.09765625 9.20703125 C-1.10289307 8.5210083 -1.10812988 7.83498535 -1.11352539 7.12817383 C-0.98303826 4.6820313 -0.52748836 2.38921201 0 0 Z " fill="#000000" transform="translate(100,303)"/>
</svg>
